Coordinates
version=1
nRows=6
nColumns=46
inDegrees=yes

Units are S.I. units (second, meters, Newtons, ...)
Angles are in degrees.

endheader
time	pelvis_tilt	pelvis_list	pelvis_rotation	pelvis_tx	pelvis_ty	pelvis_tz	bb_angle	bb_tx	bb_ty	bb_tz	hip_flexion_r	hip_adduction_r	hip_rotation_r	knee_angle_r	knee_angle_r_beta	ankle_angle_r	subtalar_angle_r	mtp_angle_r	crank_angle_r	hip_flexion_l	hip_adduction_l	hip_rotation_l	knee_angle_l	knee_angle_l_beta	ankle_angle_l	subtalar_angle_l	mtp_angle_l	crank_angle_l	lumbar_extension	lumbar_bending	lumbar_rotation	arm_flex_r	arm_add_r	arm_rot_r	elbow_flex_r	pro_sup_r	wrist_flex_r	wrist_dev_r	arm_flex_l	arm_add_l	arm_rot_l	elbow_flex_l	pro_sup_l	wrist_flex_l	wrist_dev_l
      5.00500000	    -16.91543991	      2.18579747	      6.49613555	      0.32516854	      1.13798638	     -0.27071629	      0.00000000	      0.50000000	      0.00000000	      0.25000000	     27.29417468	    -11.79071175	    -13.27897201	     34.68699620	      0.60540229	    -32.31304335	     -6.07697719	      0.00000000	      0.00000000	     81.04768962	      2.71103951	      2.77760148	    110.33793629	      1.92576028	      2.60818652	     -7.58678937	      0.00000000	      0.00000000	    -61.23822528	     -0.86555443	     -7.18860322	     55.89199512	    -17.02145087	     19.96970931	     60.64441738	     50.16599782	      0.00000000	      0.00000000	     60.99370456	    -19.23062537	     34.06830401	     68.29152110	     50.00795570	      0.00000000	      0.00000000
      5.01000000	    -16.96283682	      2.00566170	      6.63169587	      0.32451717	      1.13969342	     -0.27184600	      0.00000000	      0.50000000	      0.00000000	      0.25000000	     27.98548791	    -11.69488844	    -12.61905563	     36.32793594	      0.63404209	    -33.92595576	     -7.36870534	      0.00000000	      0.00000000	     80.52103921	      3.11547105	      2.92155892	    108.79601671	      1.89884870	      4.20594200	     -7.67618884	      0.00000000	      0.00000000	    -61.61136402	     -0.72152156	     -7.18048061	     56.10730067	    -16.96065141	     19.47664970	     60.81319875	     50.00978112	      0.00000000	      0.00000000	     61.13356476	    -19.05926496	     33.57750945	     68.84064770	     49.95196139	      0.00000000	      0.00000000
      5.01500000	    -17.05720529	      1.80212844	      6.62705347	      0.32379568	      1.14095902	     -0.27282160	      0.00000000	      0.50000000	      0.00000000	      0.25000000	     28.89153845	    -11.47632540	    -11.70164445	     38.20899359	      0.66687274	    -35.35935379	     -8.77138741	      0.00000000	      0.00000000	     79.91840404	      3.42877850	      3.18640014	    107.11306068	      1.86947558	      5.86086466	     -7.60144923	      0.00000000	      0.00000000	    -61.90099597	     -0.67626746	     -7.18003363	     56.33349426	    -16.87530172	     19.01553035	     60.96849042	     49.79570066	      0.00000000	      0.00000000	     61.23547697	    -18.96005208	     33.13477337	     69.42374309	     49.85810097	      0.00000000	      0.00000000
      5.02000000	    -17.22550714	      1.99870629	      6.74102043	      0.32309233	      1.14332800	     -0.27315147	      0.00000000	      0.50000000	      0.00000000	      0.25000000	     29.81529736	    -11.55989079	    -10.56209221	     39.99484222	      0.69804168	    -36.66085862	    -10.12937889	      0.00000000	      0.00000000	     78.26890147	      3.69595224	      1.36685441	    104.03303814	      1.81571905	      6.88314551	    -12.98179741	      0.00000000	      0.00000000	    -62.30900276	     -0.87563055	     -7.56843408	     56.71491583	    -16.74294929	     18.86968851	     60.76624706	     49.76923732	      0.00000000	      0.00000000	     61.74693364	    -19.17851265	     33.31328230	     69.81813598	     49.93216778	      0.00000000	      0.00000000
      5.02500000	    -17.09012459	      1.59468477	      6.79221642	      0.32251559	      1.14416025	     -0.27454598	      0.00000000	      0.50000000	      0.00000000	      0.25000000	     30.52757063	    -11.14879209	     -9.74160568	     42.11908910	      0.73511678	    -37.29213221	    -10.51831630	      0.00000000	      0.00000000	     77.50965904	      4.06884999	      2.16977577	    102.34985507	      1.78634196	      7.80345417	    -12.84982683	      0.00000000	      0.00000000	    -62.67424161	     -0.52020356	     -7.34449158	     57.02634511	    -16.72816385	     18.76795139	     60.76705683	     49.75978331	      0.00000000	      0.00000000	     61.87565142	    -19.21626561	     33.28273243	     69.96194290	     49.95029698	      0.00000000	      0.00000000
      5.03000000	    -17.39867884	      1.60834841	      6.51036069	      0.32201841	      1.14453685	     -0.27481729	      0.00000000	      0.50000000	      0.00000000	      0.25000000	     31.98583732	    -10.89593211	     -8.37016451	     44.62209469	      0.77880247	    -37.79293600	    -12.07357062	      0.00000000	      0.00000000	     76.72809904	      4.05849562	      2.07802648	    100.11130660	      1.74727192	      9.26053472	    -12.64055359	      0.00000000	      0.00000000	    -62.70605873	     -0.91144116	     -7.49813301	     57.18753627	    -16.60724960	     18.47384461	     60.72159914	     49.75396323	      0.00000000	      0.00000000	     61.95473085	    -19.46578391	     33.22007517	     70.71854028	     50.06295544	      0.00000000	      0.00000000
